<svg xmlns="http://www.w3.org/2000/svg" viewBox="0 0 419.32 103.98"><defs><style>.cls-1,.cls-2{fill:#231815;fill-rule:evenodd;}.cls-2{stroke:#231815;stroke-miterlimit:22.93;stroke-width:0.57px;}</style></defs><title>资源 3</title><g id="图层_2" data-name="图层 2"><g id="图层_1-2" data-name="图层 1"><path class="cls-1" d="M124.91,91.3H121v2.81h3.59V96H121v4.32h-2.32V89.39h6.22V91.3Zm9.37,9H132v-1.2h0a2.67,2.67,0,0,1-2.38,1.38c-1.82,0-2.72-1.09-2.72-3.29v-4.7h2.27V97c0,1.17.46,1.75,1.37,1.75a1.39,1.39,0,0,0,1.1-.49A2,2,0,0,0,132,97V92.52h2.27v7.81Zm8.62,0H136V99.4l4-5.17h-3.6V92.52h6.53v1.1l-3.81,5h3.83v1.7ZM144.48,90a1.07,1.07,0,0,1,.37-.85,1.36,1.36,0,0,1,.94-.32,1.39,1.39,0,0,1,1,.33,1.11,1.11,0,0,1,.38.84,1.15,1.15,0,0,1-.38.86,1.51,1.51,0,0,1-1.91,0,1.12,1.12,0,0,1-.37-.86Zm.17,10.33V92.52h2.27v7.81Zm12.43,0h-2.75l-2.6-3.86h0v3.86h-2.28V88.78h2.28v7.34h0l2.43-3.6h2.71L154,96.2l3.09,4.13Zm12.62-9h-3.12v9h-2.33v-9h-3.11V89.39h8.56V91.3Zm7.24,5.76v-1a3.9,3.9,0,0,0-.95-2.77,3.37,3.37,0,0,0-2.58-1,3.66,3.66,0,0,0-2.77,1.15,4.29,4.29,0,0,0-1.11,3.05,4,4,0,0,0,1,2.92,3.85,3.85,0,0,0,2.89,1.05,5.77,5.77,0,0,0,2.8-.59V98.24a4.11,4.11,0,0,1-2.28.63c-1.37,0-2.1-.6-2.19-1.81Zm-2.13-1.41h-3a2.23,2.23,0,0,1,.57-1.29,1.4,1.4,0,0,1,1-.47c1,0,1.42.58,1.42,1.76Zm9.91,4.38a4.63,4.63,0,0,1-2.33.48,3.94,3.94,0,0,1-2.88-1.08,3.78,3.78,0,0,1-1.1-2.82,4.15,4.15,0,0,1,1.18-3.13,4.34,4.34,0,0,1,3.16-1.14,4.2,4.2,0,0,1,2,.36v2a2.9,2.9,0,0,0-1.71-.57,2.19,2.19,0,0,0-1.66.64,2.3,2.3,0,0,0-.65,1.73,2.35,2.35,0,0,0,.6,1.7,2.24,2.24,0,0,0,1.63.62,3.22,3.22,0,0,0,1.78-.58V100Zm9.45.3H191.9V95.88c0-1.2-.44-1.8-1.31-1.8a1.36,1.36,0,0,0-1.08.5,1.91,1.91,0,0,0-.43,1.3v4.45H186.8V88.78h2.28v4.91h0a2.76,2.76,0,0,1,2.42-1.35c1.77,0,2.65,1.06,2.65,3.2v4.79Zm9.82,0h-2.26V96q0-1.89-1.35-1.89a1.39,1.39,0,0,0-1.09.5,1.9,1.9,0,0,0-.43,1.29v4.46h-2.28V92.52h2.28v1.24h0a2.74,2.74,0,0,1,2.51-1.42c1.73,0,2.59,1.06,2.59,3.21v4.78Zm1.95-3.88a4,4,0,0,1,1.14-3,4.36,4.36,0,0,1,3.12-1.09,4.1,4.1,0,0,1,3,1.07,3.91,3.91,0,0,1,1.1,2.91,4,4,0,0,1-1.14,3.05,4.09,4.09,0,0,1-3.07,1.14,4.21,4.21,0,0,1-3-1.08,4,4,0,0,1-1.11-3Zm2.31,0c0,1.56.62,2.34,1.9,2.34S212,98,212,96.37s-.6-2.29-1.83-2.29a1.7,1.7,0,0,0-1.4.62,2.72,2.72,0,0,0-.49,1.73Zm8.07,3.9V88.78h2.27v11.55Zm4.31-3.88a4,4,0,0,1,1.15-3,4.33,4.33,0,0,1,3.1-1.09,4.09,4.09,0,0,1,3,1.07A3.92,3.92,0,0,1,229,96.32a3.93,3.93,0,0,1-4.22,4.19,4.19,4.19,0,0,1-3-1.08,4,4,0,0,1-1.11-3Zm2.3,0c0,1.56.64,2.34,1.9,2.34s1.84-.81,1.84-2.4-.61-2.29-1.85-2.29a1.7,1.7,0,0,0-1.39.62,2.66,2.66,0,0,0-.5,1.73Zm15.66,3a4.34,4.34,0,0,1-1.24,3.34,5,5,0,0,1-3.56,1.18,5.9,5.9,0,0,1-2.52-.44v-2a4.9,4.9,0,0,0,2.46.7,2.67,2.67,0,0,0,1.9-.65,2.38,2.38,0,0,0,.69-1.81v-.66h0a2.69,2.69,0,0,1-2.45,1.34,2.89,2.89,0,0,1-2.36-1.05,4.21,4.21,0,0,1-.89-2.81,4.81,4.81,0,0,1,1-3.14,3.15,3.15,0,0,1,2.56-1.17,2.37,2.37,0,0,1,2.16,1.11h0v-.93h2.27v6.94Zm-2.26-3.53a1.93,1.93,0,0,0-.47-1.33,1.5,1.5,0,0,0-1.18-.52,1.61,1.61,0,0,0-1.31.65,3,3,0,0,0-.47,1.83,2.58,2.58,0,0,0,.45,1.62,1.51,1.51,0,0,0,1.23.59,1.61,1.61,0,0,0,1.28-.61,2.41,2.41,0,0,0,.47-1.55v-.68Zm12.07-3.41-3.21,8.5c-.76,2-1.87,3-3.36,3a3.84,3.84,0,0,1-1.37-.18V102a1.93,1.93,0,0,0,1,.26,1.32,1.32,0,0,0,1.31-.9l.43-1-3.15-7.79h2.52l1.52,4.89a3.69,3.69,0,0,1,.2,1h0a7.72,7.72,0,0,1,.23-1l1.57-4.9Zm5.13,7.81V89.39h3.78q5.81,0,5.81,5.34a5.37,5.37,0,0,1-1.62,4.06,5.91,5.91,0,0,1-4.2,1.54Zm2.33-9v7.12h1.27a3.37,3.37,0,0,0,2.6-1,3.63,3.63,0,0,0,.95-2.66,3.3,3.3,0,0,0-1-2.55,3.61,3.61,0,0,0-2.56-.91Zm16.27,5.76H267c.08,1.21.81,1.81,2.19,1.81a4.18,4.18,0,0,0,2.28-.63v1.68a5.78,5.78,0,0,1-2.79.59,3.84,3.84,0,0,1-2.9-1.05,4,4,0,0,1-1-2.92,4.33,4.33,0,0,1,1.1-3.05,3.65,3.65,0,0,1,2.76-1.15,3.41,3.41,0,0,1,2.6,1,3.93,3.93,0,0,1,.93,2.77v1ZM270,95.65c0-1.18-.48-1.76-1.42-1.76a1.42,1.42,0,0,0-1,.47,2.36,2.36,0,0,0-.57,1.29Zm11.35-3.13-2.94,7.81h-2.57l-2.78-7.81h2.43l1.44,4.9a6,6,0,0,1,.26,1.36h0a6.71,6.71,0,0,1,.29-1.31l1.45-5Zm8.29,4.54h-5.14c.08,1.21.81,1.81,2.18,1.81a4.15,4.15,0,0,0,2.28-.63v1.68a5.78,5.78,0,0,1-2.79.59,3.87,3.87,0,0,1-2.9-1.05,4,4,0,0,1-1-2.92,4.33,4.33,0,0,1,1.1-3.05,3.66,3.66,0,0,1,2.77-1.15,3.41,3.41,0,0,1,2.59,1,4,4,0,0,1,.94,2.77v1Zm-2.14-1.41c0-1.18-.46-1.76-1.41-1.76a1.43,1.43,0,0,0-1,.47,2.35,2.35,0,0,0-.55,1.29Zm4,4.68V88.78h2.28v11.55Zm4.32-3.88a4,4,0,0,1,1.13-3,4.37,4.37,0,0,1,3.11-1.09,4.11,4.11,0,0,1,3,1.07,3.91,3.91,0,0,1,1.11,2.91,4.08,4.08,0,0,1-1.14,3.05,4.13,4.13,0,0,1-3.08,1.14,4.21,4.21,0,0,1-3-1.08,4,4,0,0,1-1.1-3Zm2.3,0c0,1.56.62,2.34,1.9,2.34s1.83-.81,1.83-2.4-.62-2.29-1.85-2.29a1.68,1.68,0,0,0-1.38.62,2.66,2.66,0,0,0-.5,1.73Zm10.39,2.95v4.53h-2.28V92.52h2.28v1.2h0a2.79,2.79,0,0,1,2.54-1.38,2.84,2.84,0,0,1,2.32,1,4.39,4.39,0,0,1,.83,2.83,4.82,4.82,0,0,1-1,3.14,3.17,3.17,0,0,1-2.55,1.17,2.43,2.43,0,0,1-2.18-1.13Zm0-2.5a2,2,0,0,0,.45,1.36,1.46,1.46,0,0,0,1.17.53,1.56,1.56,0,0,0,1.33-.67,3.24,3.24,0,0,0,.47-1.88c0-1.42-.55-2.14-1.67-2.14a1.63,1.63,0,0,0-1.27.6,2.31,2.31,0,0,0-.48,1.52v.68Zm20.08,3.45h-2.28V95.87c0-1.19-.43-1.79-1.31-1.79a1.21,1.21,0,0,0-1,.54,2.18,2.18,0,0,0-.4,1.32v4.39h-2.29V95.82c0-1.16-.43-1.74-1.28-1.74a1.23,1.23,0,0,0-1,.51,2.4,2.4,0,0,0-.38,1.38v4.36h-2.28V92.52h2.28v1.22h0a2.87,2.87,0,0,1,1.09-1,3,3,0,0,1,1.42-.36,2.21,2.21,0,0,1,2.25,1.46,2.88,2.88,0,0,1,2.63-1.46c1.69,0,2.55,1,2.55,3.13v4.86Zm9.33-3.27h-5.14c.09,1.21.81,1.81,2.18,1.81a4.13,4.13,0,0,0,2.28-.63v1.68a5.74,5.74,0,0,1-2.78.59,3.8,3.8,0,0,1-2.89-1.05,3.93,3.93,0,0,1-1.05-2.92,4.29,4.29,0,0,1,1.11-3.05,3.64,3.64,0,0,1,2.76-1.15,3.38,3.38,0,0,1,2.59,1,3.89,3.89,0,0,1,.94,2.77v1Zm-2.13-1.41c0-1.18-.46-1.76-1.41-1.76a1.42,1.42,0,0,0-1,.47,2.36,2.36,0,0,0-.56,1.29Zm11.48,4.68H345V96c0-1.26-.46-1.89-1.37-1.89a1.38,1.38,0,0,0-1.08.5,2,2,0,0,0-.43,1.29v4.46h-2.28V92.52h2.28v1.24h0a2.76,2.76,0,0,1,2.52-1.42c1.73,0,2.59,1.06,2.59,3.21v4.78Zm7-.09a3.48,3.48,0,0,1-1.57.27c-1.65,0-2.48-.87-2.48-2.6V94.23H349V92.52h1.28V90.81l2.27-.65v2.36h1.78v1.71h-1.78v3.28c0,.83.31,1.25,1,1.25a1.6,1.6,0,0,0,.79-.23v1.71Zm13.3-.31a6.92,6.92,0,0,1-3.1.58A5.26,5.26,0,0,1,360.56,99a5.38,5.38,0,0,1-1.45-3.93,5.76,5.76,0,0,1,1.63-4.24,5.57,5.57,0,0,1,4.17-1.64,7.18,7.18,0,0,1,2.68.42v2.24a4.76,4.76,0,0,0-2.5-.65,3.38,3.38,0,0,0-2.57,1,3.74,3.74,0,0,0-.95,2.68,3.7,3.7,0,0,0,.9,2.59,3.22,3.22,0,0,0,2.47,1,5.13,5.13,0,0,0,2.65-.71v2.14Zm1.7-3.48a4,4,0,0,1,1.16-3,4.33,4.33,0,0,1,3.1-1.09,4.07,4.07,0,0,1,3,1.07,3.87,3.87,0,0,1,1.11,2.91,3.93,3.93,0,0,1-4.21,4.19,4.18,4.18,0,0,1-3-1.08,4,4,0,0,1-1.12-3Zm2.32,0c0,1.56.63,2.34,1.9,2.34s1.83-.81,1.83-2.4-.61-2.29-1.85-2.29a1.7,1.7,0,0,0-1.39.62,2.66,2.66,0,0,0-.49,1.73Zm7.77,2.87a1.1,1.1,0,0,1,.41-.87,1.41,1.41,0,0,1,.95-.33,1.37,1.37,0,0,1,1,.33,1.17,1.17,0,0,1,.38.87,1.14,1.14,0,0,1-.38.88,1.45,1.45,0,0,1-1,.33,1.36,1.36,0,0,1-.94-.34,1.12,1.12,0,0,1-.4-.87Zm7.09-.87-1.13,3.83h-1.77l.79-3.83Zm12.5,1.9h-6.41V89.39h2.33v9H399v1.91Zm6.15-.09a3.49,3.49,0,0,1-1.56.27c-1.66,0-2.49-.87-2.49-2.6V94.23h-1.28V92.52h1.28V90.81l2.27-.65v2.36h1.78v1.71h-1.78v3.28c0,.83.32,1.25,1,1.25a1.57,1.57,0,0,0,.79-.23v1.71Zm9.3.09h-2.27V99.22h0a2.73,2.73,0,0,1-2.45,1.29,2.88,2.88,0,0,1-2.36-1.05,4.27,4.27,0,0,1-.88-2.86,4.68,4.68,0,0,1,1-3.09A3.13,3.13,0,0,1,410,92.34a2.21,2.21,0,0,1,2.13,1.09h0V88.78h2.27v11.55Zm-2.24-4.42a1.87,1.87,0,0,0-.47-1.32,1.55,1.55,0,0,0-1.18-.51,1.53,1.53,0,0,0-1.31.66,2.88,2.88,0,0,0-.49,1.79,2.64,2.64,0,0,0,.47,1.66,1.61,1.61,0,0,0,2.51,0,2.51,2.51,0,0,0,.47-1.59v-.65Zm4.45,3.39a1,1,0,0,1,.41-.87,1.34,1.34,0,0,1,.94-.33,1.39,1.39,0,0,1,1,.33,1.17,1.17,0,0,1,.38.87,1.14,1.14,0,0,1-.38.88,1.48,1.48,0,0,1-1,.33,1.31,1.31,0,0,1-.92-.34A1.06,1.06,0,0,1,416.63,99.3Z"/><polygon class="cls-1" points="363.26 42.79 363.26 79.32 352.08 79.32 352.08 5.05 363.26 5.05 363.26 40.01 363.26 42.79"/><path class="cls-1" d="M367.51,47.44l-.45-.52a8.57,8.57,0,0,1,.64-11.56l-.07.08L397.24,5.05h13.84L374.55,40.54,411,79.14H395.7L367.38,47.29Z"/><path class="cls-1" d="M306.2,18.93,265,70.83h66V63.3h0V5.05h11.17v7.18h0V63.65h0v7.18a8.58,8.58,0,0,1-8.56,8.47v0H263.77a8.57,8.57,0,0,1-8.57-8.57,8.47,8.47,0,0,1,1.63-5h0L298.2,13.57H252.51V5.05h46.95a8.57,8.57,0,0,1,6.73,13.89Z"/><path class="cls-1" d="M158.86,13.57H129.13V38.42h31v8.45h-31V79.32H118V5.06h48.23a23.11,23.11,0,0,1,23.12,23.1V49q0,21.93,21.82,21.92,21.06,0,21.07-21.21V5.05h11.18V48.31q0,31-33.32,31-31.93,0-31.94-29.87V29.91h0a16.35,16.35,0,0,0-16.34-16.34h-2.9Z"/><path class="cls-2" d="M290.9,13.63v-.06"/><path class="cls-1" d="M101.68,14.71C96.46,7.3,88.34,2.47,78.18.71c-15.33-2.65-33.6,2.21-48.9,13C2.88,32.34-7.61,63.09,5.9,82.25c5.22,7.4,13.35,12.24,23.51,14C44.72,98.89,63,94,78.31,83.23s26-26.36,28.66-41.68c1.76-10.17-.08-19.45-5.29-26.84Zm.43,26.14C99.71,54.74,89.94,68.9,76,78.74a71.57,71.57,0,0,1-17.67,9.13c-28.53,4.51-29-14.46-29-14.46C30.79,53,54.17,45.23,54.17,45.23L58.34,27l-.63.18C19,41.21,19,69.13,19,69.13c.25,17.36,18.37,21.13,18.37,21.13-24.15-3-22.14-21.38-22.14-21.38C17.46,31.9,59,21.1,59,21.1l.87-.27L63.63,4.7a47.55,47.55,0,0,1,13.21.35c9,1.55,16.1,5.77,20.67,12.23S103.66,31.89,102.11,40.85Z"/></g></g></svg>