<svg width="94px" height="66px" viewBox="0 0 94 66" version="1.1" xmlns="http://www.w3.org/2000/svg" xmlns:xlink="http://www.w3.org/1999/xlink">
    <desc>Created with Sketch.</desc>
    <defs></defs>
    <g id="Page-1" stroke="none" stroke-width="1" fill="none" fill-rule="evenodd">
        <g id="login" transform="translate(-911.000000, -289.000000)" fill-rule="nonzero" fill="#008DFA">
            <g id="center" transform="translate(708.000000, 239.000000)">
                <g id="logo" transform="translate(138.000000, 50.000000)">
                    <g id="sr" transform="translate(65.000000, 0.000000)">
                        <g id="Group" transform="translate(17.000000, 0.000000)">
                            <path d="M55.3694118,5.76 C48.1976471,-2.41454545 35.8588235,-1.55636364 28.0941176,6.25454545 L14.2023529,20.2327273 L10.6870588,23.7672727 C11.9717647,25.9490909 14.9505882,26.3127273 16.8423529,24.5090909 L16.8423529,24.5090909 L31.3411765,10.6909091 C36.6635294,5.61454545 44.7529412,5.44 49.2705882,10.9236364 C54.0423529,16.7272727 52.4752941,25.8618182 45.9952941,30.6618182 C41.9294118,33.6727273 37.0870588,34.0363636 33.2894118,32.2618182 C30.8470588,31.8690909 28.6164706,33.6872727 28.2352941,36.2763636 L28.2352941,36.2763636 L28.2352941,36.2763636 C34.0094118,40.8436364 42.7341176,41.3963636 50.1317647,36.3054545 C60.6211765,29.12 63.2188235,14.6909091 55.3694118,5.76 Z" id="Shape"></path>
                            <path d="M2.00470588,32.5090909 C5.61882353,39.3745455 13.3411765,41.3527273 19.5388235,36.1018182 L34.6729412,23.2872727 L39.6988235,19.0254545 C37.7788235,16.4509091 33.6705882,16.3054545 31.2705882,18.4581818 L31.2705882,18.4581818 L16.8,31.5054545 C12.7764706,35.1272727 7.56705882,34.0509091 5.05411765,29.4690909 C2.64,25.0763636 3.40235294,18.6763636 6.84705882,14.8509091 C9.27529412,12.16 12.48,11.2872727 15.2611765,12.3490909 C17.1952941,12.4072727 19.0870588,10.4290909 19.4258824,7.94181818 L19.4258824,7.94181818 L19.4258824,7.94181818 C14.7247059,4.97454545 8.78117647,6.19636364 4.60235294,11.0836364 C-0.324705882,16.7854545 -1.39764706,26.0509091 2.00470588,32.5090909 Z" id="Shape"></path>
                        </g>
                        <g id="Group" transform="translate(0.000000, 48.000000)">
                            <path d="M9.48558422,17.568 C6.56145675,17.568 3.65159332,17.568 0.727465857,17.568 C-0.0142640364,17.568 5.231926e-15,17.568 0.285280728,16.848 C1.06980273,14.904 2.72443096,14.0832 4.52169954,13.4928 C5.52018209,13.1616 6.57572079,13.0464 7.63125948,13.0464 C10.8406677,13.0464 14.0358118,13.0608 17.24522,13.0608 C17.616085,13.0608 18.001214,13.0608 18.3578149,12.9744 C19.0282246,12.8304 19.3135053,12.3984 19.2849772,11.736 C19.2564492,11.0736 18.8855842,10.7424 18.2722307,10.6416 C17.8585736,10.5696 17.4449165,10.5408 17.0312595,10.5408 C13.7647951,10.5408 10.4983308,10.5408 7.21760243,10.5264 C5.91957511,10.5264 4.67860395,10.2528 3.5660091,9.5616 C1.22670713,8.1072 0.684673748,5.7312 1.74021244,3.3408 C2.58179059,1.4544 4.33626707,0.6336 6.3047041,0.288 C7.27465857,0.1152 8.27314112,0.072 9.25735964,0.072 C14.1784522,0.0576 19.0852807,0.0576 24.0063733,0.0576 C24.7766313,0.0576 24.8051593,0.1008 24.5198786,0.8352 C23.7353566,2.7504 22.1092564,3.6144 20.3119879,4.2336 C19.3135053,4.5792 18.2579666,4.68 17.2024279,4.6656 C14.3068285,4.6512 11.4112291,4.6512 8.51562974,4.6512 C8.17329287,4.6512 7.81669196,4.6512 7.47435508,4.752 C6.90379363,4.9104 6.63277693,5.2416 6.63277693,5.8464 C6.63277693,6.4512 6.90379363,6.7968 7.47435508,6.9408 C7.81669196,7.0272 8.15902883,7.056 8.51562974,7.056 C11.8248862,7.056 15.1484067,7.0416 18.4576631,7.0704 C20.1408194,7.0848 21.7526555,7.416 23.1647951,8.4672 C23.9778452,9.072 24.3487102,9.8784 24.5198786,10.8 C24.676783,11.6064 24.6339909,12.4272 24.4913505,13.248 C24.0491654,15.7104 22.2518968,16.6896 20.1265554,17.2656 C19.2992413,17.496 18.4433991,17.568 17.5875569,17.568 C14.87739,17.5536 12.1814871,17.5536 9.48558422,17.568 C9.48558422,17.5536 9.48558422,17.568 9.48558422,17.568 Z" id="Shape"></path>
                            <path d="M55.6725341,11.88 C57.1274659,13.4064 58.753566,15.4944 60.2512898,17.0496 C58.9960546,17.0784 57.5268589,17.0784 56.4570561,17.0784 C55.4015175,17.0928 55.2874052,17.0928 54.3459788,17.0496 C53.8039454,17.0496 52.9195751,16.5888 52.6200303,16.2 C51.8497724,15.2352 51.0367223,14.2992 50.2664643,13.3344 C50.0239757,13.032 49.7672231,12.9024 49.36783,12.9024 C46.9714719,12.9168 44.5893778,12.9312 42.1930197,12.9024 C41.6937785,12.9024 41.5511381,13.032 41.5654021,13.536 C41.6081942,14.5152 41.5654021,15.48 41.5796662,16.4592 C41.5939302,16.8768 41.4940819,17.0496 41.0376328,17.0352 C39.5969651,17.0064 38.1420334,17.0064 36.7013657,17.0352 C36.2877086,17.0352 36.1878604,16.8912 36.1878604,16.5024 C36.2021244,14.8176 36.1878604,13.1328 36.2021244,11.448 C36.2021244,9.6336 37.1435508,8.6544 38.9550835,8.6256 C40.7095599,8.5968 42.4640364,8.6112 44.2185129,8.6112 C46.5863429,8.6112 48.954173,8.6112 51.322003,8.6112 C52.0352049,8.6112 52.7198786,8.4384 53.3760243,8.1936 C54.060698,7.9344 54.5171472,7.2144 54.4743551,6.5376 C54.431563,5.7168 53.9465857,5.1264 53.1763278,4.896 C52.5487102,4.6944 51.8925645,4.6224 51.2364188,4.6224 C46.6576631,4.6368 42.0646434,4.6224 37.4858877,4.6512 C36.801214,4.6512 36.4588771,4.392 36.2734446,3.7872 C35.9738998,2.7792 35.9738998,1.7856 36.3162367,0.792 C36.4874052,0.288 36.801214,0.0144 37.3860395,0.0288 C41.6224583,0.0576 45.8588771,0.0288 50.0810319,0.0432 C51.7213961,0.0432 53.3760243,0.1152 54.9735964,0.5328 C56.1717754,0.8352 57.2986343,1.3392 58.2257967,2.2032 C61.3638847,5.1264 60.2227618,10.368 56.1575114,11.6928 C56.014871,11.7504 55.8722307,11.808 55.6725341,11.88 Z" id="Shape"></path>
                            <path d="M85.5984825,6.12 C85.5984825,7.5312 85.6555387,8.9568 85.5842185,10.368 C85.4273141,13.3632 84.0151745,15.5232 81.2622155,16.7616 C79.8786039,17.3808 78.4236722,17.6832 76.9259484,17.7696 C74.030349,17.9424 71.1490137,17.928 68.3104704,17.1504 C66.4561457,16.6464 64.8585736,15.7104 63.6746586,14.1984 C62.8616085,13.1616 62.5620637,11.8944 62.5335357,10.584 C62.4907436,7.416 62.5192716,4.248 62.5050076,1.08 C62.5050076,0.6048 62.6904401,0.5472 63.0898331,0.5472 C64.5162367,0.5616 65.9426404,0.576 67.369044,0.5472 C67.8254932,0.5328 67.9681335,0.6768 67.9681335,1.152 C67.9538695,3.744 67.9538695,6.336 67.9681335,8.928 C67.9681335,9.5184 68.0109256,10.1232 68.0537178,10.7136 C68.139302,11.736 68.6670713,12.4272 69.6227618,12.8016 C70.2646434,13.0464 70.9350531,13.1616 71.6054628,13.2192 C73.5025797,13.3776 75.4139605,13.4496 77.3110774,13.1616 C79.2509863,12.8592 80.0640364,11.8944 80.0783005,9.936 C80.0925645,7.0848 80.1068285,4.2192 80.0640364,1.368 C80.0497724,0.72 80.2494689,0.5472 80.8770865,0.5616 C82.2749621,0.6048 83.6871017,0.5904 85.0849772,0.5616 C85.5271624,0.5472 85.6555387,0.7056 85.6555387,1.1376 C85.6412747,2.7936 85.6412747,4.464 85.6412747,6.12 C85.6412747,6.12 85.6270106,6.12 85.5984825,6.12 Z" id="Shape"></path>
                            <path d="M93.8573596,8.8416 C93.8573596,11.3616 93.8430956,13.8816 93.8716237,16.416 C93.8716237,16.8912 93.7717754,17.0784 93.2582701,17.064 C91.8746586,17.0208 90.491047,17.0352 89.1216995,17.064 C88.6509863,17.0784 88.4798179,16.9776 88.4798179,16.4448 C88.4940819,11.3616 88.4940819,6.264 88.4798179,1.1808 C88.4798179,0.648 88.6795144,0.5616 89.1359636,0.5616 C90.491047,0.5904 91.8603945,0.5904 93.215478,0.5616 C93.7289833,0.5472 93.8858877,0.6768 93.8858877,1.224 C93.8430956,3.7584 93.8573596,6.3072 93.8573596,8.8416 Z" id="Shape"></path>
                            <path d="M32.8786039,8.856 C32.8786039,11.376 32.8643399,13.896 32.892868,16.4304 C32.892868,16.9344 32.7502276,17.0784 32.2652504,17.064 C30.8816388,17.0352 29.4980273,17.0352 28.1286798,17.064 C27.7292868,17.064 27.5581184,16.9776 27.5581184,16.5168 C27.5723824,11.4048 27.5723824,6.2928 27.5581184,1.1808 C27.5581184,0.7776 27.6722307,0.648 28.0858877,0.648 C29.5122914,0.6624 30.938695,0.6768 32.3650986,0.648 C32.8072838,0.6336 32.907132,0.8064 32.907132,1.224 C32.8786039,3.7584 32.8786039,6.3072 32.8786039,8.856 Z" id="Shape"></path>
                        </g>
                    </g>
                </g>
            </g>
        </g>
    </g>
</svg>